<svg width="100" height="32" viewBox="60 0 80 32" fill="none" xmlns="http://www.w3.org/2000/svg">
    <path d="M55.9237 25.248H60.0527L65.3631 8.352H62.4623L57.959 22.5024L53.5141 8.352H50.6133L55.9237 25.248Z" fill="#1E1E1E"></path>
    <path d="M69.6021 25.6C70.6081 25.6 71.462 25.4357 72.1638 25.1072C72.8734 24.7708 73.4972 24.2507 74.0353 23.5467V25.248H76.5033V17.4688C76.5033 16.9212 76.4799 16.4167 76.4332 15.9552C76.3864 15.4859 76.2499 15.0283 76.0238 14.5824C75.6105 13.7454 74.9749 13.1431 74.1172 12.7755C73.2672 12.4078 72.2807 12.224 71.1578 12.224C69.6762 12.224 68.4948 12.5486 67.6137 13.1979C66.7325 13.8471 66.136 14.7076 65.824 15.7792L68.3974 16.5888C68.6079 15.9396 68.9783 15.482 69.5086 15.216C70.0388 14.95 70.5886 14.8171 71.1578 14.8171C72.0156 14.8171 72.6472 14.9931 73.0527 15.3451C73.4582 15.6892 73.6883 16.2251 73.7429 16.9525C72.6356 17.1168 71.6062 17.2772 70.6549 17.4336C69.7113 17.5822 68.9081 17.766 68.2453 17.9851C67.2472 18.3292 66.5181 18.8181 66.058 19.4517C65.5979 20.0775 65.3679 20.8519 65.3679 21.7749C65.3679 22.4711 65.5277 23.1086 65.8474 23.6875C66.1749 24.2663 66.6545 24.7317 67.2862 25.0837C67.9178 25.4279 68.6898 25.6 69.6021 25.6ZM70.1636 23.3472C69.5008 23.3472 68.9939 23.1947 68.643 22.8896C68.2999 22.5845 68.1283 22.2012 68.1283 21.7397C68.1283 21.3252 68.2609 20.9888 68.526 20.7307C68.799 20.4725 69.1772 20.2535 69.6606 20.0736C70.1051 19.925 70.6393 19.7959 71.2631 19.6864C71.8869 19.5691 72.7018 19.4322 73.7078 19.2757C73.7 19.573 73.6805 19.9054 73.6493 20.2731C73.6181 20.6329 73.544 20.9575 73.427 21.2469C73.3335 21.5364 73.1502 21.8453 72.8773 22.1739C72.6122 22.5024 72.2534 22.7801 71.8012 23.0069C71.3489 23.2338 70.803 23.3472 70.1636 23.3472Z" fill="#1E1E1E"></path>
    <path d="M79.7825 25.248H82.6015V8H79.7825V25.248Z" fill="#1E1E1E"></path>
    <path d="M89.6377 25.6C90.6436 25.6 91.4975 25.4357 92.1993 25.1072C92.9089 24.7708 93.5328 24.2507 94.0708 23.5467V25.248H96.5389V17.4688C96.5389 16.9212 96.5155 16.4167 96.4687 15.9552C96.4219 15.4859 96.2855 15.0283 96.0593 14.5824C95.646 13.7454 95.0105 13.1431 94.1527 12.7755C93.3027 12.4078 92.3163 12.224 91.1934 12.224C89.7118 12.224 88.5304 12.5486 87.6492 13.1979C86.7681 13.8471 86.1715 14.7076 85.8596 15.7792L88.4329 16.5888C88.6435 15.9396 89.0139 15.482 89.5441 15.216C90.0744 14.95 90.6241 14.8171 91.1934 14.8171C92.0512 14.8171 92.6828 14.9931 93.0883 15.3451C93.4938 15.6892 93.7238 16.2251 93.7784 16.9525C92.6711 17.1168 91.6418 17.2772 90.6904 17.4336C89.7469 17.5822 88.9437 17.766 88.2809 17.9851C87.2827 18.3292 86.5536 18.8181 86.0935 19.4517C85.6335 20.0775 85.4034 20.8519 85.4034 21.7749C85.4034 22.4711 85.5633 23.1086 85.883 23.6875C86.2105 24.2663 86.6901 24.7317 87.3217 25.0837C87.9533 25.4279 88.7253 25.6 89.6377 25.6ZM90.1992 23.3472C89.5363 23.3472 89.0295 23.1947 88.6786 22.8896C88.3354 22.5845 88.1639 22.2012 88.1639 21.7397C88.1639 21.3252 88.2965 20.9888 88.5616 20.7307C88.8345 20.4725 89.2127 20.2535 89.6962 20.0736C90.1407 19.925 90.6748 19.7959 91.2987 19.6864C91.9225 19.5691 92.7374 19.4322 93.7433 19.2757C93.7355 19.573 93.716 19.9054 93.6848 20.2731C93.6537 20.6329 93.5796 20.9575 93.4626 21.2469C93.369 21.5364 93.1858 21.8453 92.9128 22.1739C92.6477 22.5024 92.289 22.7801 91.8367 23.0069C91.3844 23.2338 90.8386 23.3472 90.1992 23.3472Z" fill="#1E1E1E"></path>
    <path d="M99.5607 25.248H102.415V18.736C102.415 17.7113 102.559 16.9212 102.848 16.3659C103.144 15.8027 103.518 15.4155 103.97 15.2043C104.431 14.9852 104.898 14.8757 105.374 14.8757C106.045 14.8757 106.579 15.0244 106.977 15.3216C107.374 15.611 107.667 15.9826 107.854 16.4363C108.049 16.8821 108.174 17.3476 108.228 17.8325C108.291 18.3175 108.322 18.7556 108.322 19.1467V25.248H111.176V18.1728C111.176 17.8756 111.148 17.4805 111.094 16.9877C111.047 16.4949 110.938 15.9748 110.766 15.4272C110.595 14.8796 110.33 14.3634 109.971 13.8784C109.612 13.3856 109.125 12.9867 108.509 12.6816C107.901 12.3687 107.133 12.2123 106.205 12.2123C105.292 12.2123 104.489 12.3726 103.795 12.6933C103.109 13.0062 102.536 13.4364 102.076 13.984V12.576H99.5607V25.248Z" fill="#1E1E1E"></path>
    <path d="M121.632 25.248V22.8779C120.845 22.9952 120.143 23.0265 119.527 22.9717C118.911 22.917 118.462 22.6549 118.182 22.1856C118.034 21.9431 117.952 21.6302 117.936 21.2469C117.928 20.8558 117.924 20.41 117.924 19.9093V14.7936H121.632V12.576H117.924V9.056H115.117V12.576H112.824V14.7936H115.117V20.0736C115.117 20.8011 115.125 21.4503 115.14 22.0213C115.156 22.5845 115.308 23.1399 115.597 23.6875C115.924 24.2898 116.404 24.7317 117.035 25.0133C117.667 25.2871 118.381 25.4318 119.176 25.4475C119.979 25.4709 120.798 25.4044 121.632 25.248Z" fill="#1E1E1E"></path>
    <path d="M124.583 10.6517H127.402V8.05867H124.583V10.6517ZM124.583 25.248H127.402V12.576H124.583V25.248Z" fill="#1E1E1E"></path>
    <path d="M135.783 25.6C137.413 25.6 138.688 25.2363 139.608 24.5088C140.536 23.7813 141 22.7801 141 21.5051C141 20.5195 140.688 19.7451 140.064 19.1819C139.448 18.6187 138.384 18.1415 136.871 17.7504C135.888 17.5001 135.147 17.2889 134.648 17.1168C134.157 16.9447 133.83 16.7726 133.666 16.6005C133.502 16.4284 133.42 16.2212 133.42 15.9787C133.42 15.5563 133.623 15.2277 134.028 14.9931C134.434 14.7506 134.968 14.645 135.631 14.6763C136.317 14.7154 136.867 14.8914 137.28 15.2043C137.701 15.5172 137.951 15.9435 138.029 16.4832L140.906 15.9669C140.75 14.8249 140.193 13.9175 139.234 13.2448C138.274 12.5643 137.058 12.224 135.584 12.224C134.079 12.224 132.874 12.576 131.97 13.28C131.065 13.984 130.613 14.9305 130.613 16.1195C130.613 17.066 130.929 17.813 131.56 18.3605C132.2 18.9081 133.311 19.3892 134.894 19.8037C135.845 20.054 136.547 20.2652 136.999 20.4373C137.46 20.6016 137.76 20.7698 137.9 20.9419C138.041 21.114 138.111 21.3447 138.111 21.6341C138.111 22.1035 137.924 22.475 137.549 22.7488C137.175 23.0148 136.652 23.1477 135.982 23.1477C135.21 23.1477 134.567 22.9678 134.052 22.608C133.545 22.2482 133.221 21.7554 133.081 21.1296L130.204 21.5755C130.414 22.8505 131.007 23.84 131.981 24.544C132.956 25.248 134.223 25.6 135.783 25.6Z" fill="#1E1E1E"></path>
</svg>